HIERARCHY
ROOT Hips
{
    OFFSET 0.0 0.0 0.0
    CHANNELS 6 Xposition Yposition Zposition Zrotation Xrotation Yrotation
    JOINT LeftHipJoint
    {
        OFFSET 0.1 0.0 0.0
        CHANNELS 3 Zrotation Xrotation Yrotation
        JOINT LeftUpLeg
        {
            OFFSET 118.14592593432135 0.0 0.0
            CHANNELS 3 Zrotation Xrotation Yrotation
            JOINT LeftLeg
            {
                OFFSET 0.0 0.0 -404.89376045683093
                CHANNELS 3 Zrotation Xrotation Yrotation
                JOINT LeftFoot
                {
                    OFFSET 0.0 0.0 -391.3369836919401
                    CHANNELS 3 Zrotation Xrotation Yrotation
                    End Site
                    {
                        OFFSET 0.0 -0.1 0.0
                    }
                }
            }
        }
    }
    JOINT LowerBack
    {
        OFFSET 0.0 0.0 0.1
        CHANNELS 3 Zrotation Xrotation Yrotation
        JOINT Spine
        {
            OFFSET 0.0 0.0 218.45801725130036
            CHANNELS 3 Zrotation Xrotation Yrotation
            JOINT Spine1
            {
                OFFSET 0.0 0.0 250.3328642946054
                CHANNELS 3 Zrotation Xrotation Yrotation
                JOINT LeftShoulder
                {
                    OFFSET 0.1 0.0 0.0
                    CHANNELS 3 Zrotation Xrotation Yrotation
                    JOINT LeftArm
                    {
                        OFFSET 139.22761228869433 0.0 0.0
                        CHANNELS 3 Zrotation Xrotation Yrotation
                        JOINT LeftForeArm
                        {
                            OFFSET 255.77939051779518 0.0 0.0
                            CHANNELS 3 Zrotation Xrotation Yrotation
                            JOINT LeftHand
                            {
                                OFFSET 247.9839138689635 0.0 0.0
                                CHANNELS 3 Zrotation Xrotation Yrotation
                                End Site
                                {
                                    OFFSET 0.1 0.0 0.0
                                }
                            }
                        }
                    }
                }
                JOINT Neck
                {
                    OFFSET 0.0 0.0 0.1
                    CHANNELS 3 Zrotation Xrotation Yrotation
                    JOINT Neck1
                    {
                        OFFSET 0.0 0.0 106.63597981265166
                        CHANNELS 3 Zrotation Xrotation Yrotation
                        End Site
                        {
                            OFFSET 0.0 0.0 116.87542531516009
                        }
                    }
                }
                JOINT RightShoulder
                {
                    OFFSET -0.1 0.0 0.0
                    CHANNELS 3 Zrotation Xrotation Yrotation
                    JOINT RightArm
                    {
                        OFFSET -139.22761228869433 0.0 0.0
                        CHANNELS 3 Zrotation Xrotation Yrotation
                        JOINT RightForeArm
                        {
                            OFFSET -255.77939051779518 0.0 0.0
                            CHANNELS 3 Zrotation Xrotation Yrotation
                            JOINT RightHand
                            {
                                OFFSET -247.9839138689635 0.0 0.0
                                CHANNELS 3 Zrotation Xrotation Yrotation
                                End Site
                                {
                                    OFFSET -0.1 0.0 0.0
                                }
                            }
                        }
                    }
                }
            }
        }
    }
    JOINT RightHipJoint
    {
        OFFSET -0.1 0.0 0.0
        CHANNELS 3 Zrotation Xrotation Yrotation
        JOINT RightUpLeg
        {
            OFFSET -118.14592593432135 0.0 0.0
            CHANNELS 3 Zrotation Xrotation Yrotation
            JOINT RightLeg
            {
                OFFSET 0.0 0.0 -404.89376045683093
                CHANNELS 3 Zrotation Xrotation Yrotation
                JOINT RightFoot
                {
                    OFFSET 0.0 0.0 -391.3369836919401
                    CHANNELS 3 Zrotation Xrotation Yrotation
                    End Site
                    {
                        OFFSET 0.0 -0.1 0.0
                    }
                }
            }
        }
    }
}
MOTION
Frames: 9
Frame Time: 0.03333333333333333
0.0 0.0 801.7028809013551 24.69729575134274 2.0850899532581786 3.77992413315428 -1.9397049161353235e-33 -2.981770013872047e-16 -7.454425034680117e-16 -0.2310043451261811 -16.12946859195652 0.038119433621501955 0.36437033066748264 22.694352467773548 0.36769120136130046 0.0 0.0 7.951386703658792e-16 -1.9397049161353235e-33 -2.981770013872047e-16 -7.454425034680117e-16 0.01251705536324243 0.8944896653137838 -2.648953390697144 0.6822473174156415 3.472752510653531e-16 -1.0146170325572535e-16 0.0 0.0 -9.93923337957349e-17 -45.322249226647436 2.689186032039109 74.08775021090105 -22.331258061904375 3.161196942922929e-15 1.683356017780137e-14 0.0 0.0 -1.3914926731402886e-15 0.0 0.0 -9.93923337957349e-17 -0.7807017047761352 -5.967614747431146 0.17330207029025363 0.0 0.0 -9.93923337957349e-17 31.52526410736279 3.4897968513101794 -70.63111797910976 33.13779094449223 -7.910965678735324e-15 -4.282995060014391e-15 0.0 0.0 0.0 -1.9397049161353235e-33 -2.981770013872047e-16 -7.454425034680117e-16 -0.1788524056213533 -12.524901291900559 -2.2014536585753635 -0.5040578660089525 20.076374551474867 -0.0003810150081972799 0.0 0.0 0.0
0.0 0.0 801.7028809013551 24.85362329889511 2.0368167941842588 3.8280077349255484 0.0 0.0 0.0 -0.2375060178622402 -16.219923504350184 0.018137341137569103 0.36669808814753535 22.85316618143283 0.36280866133710793 0.0 0.0 0.0 0.0 0.0 0.0 0.013064959847209442 0.9135173783233954 -2.667727899531244 0.7978213283685834 1.973958614916155e-16 -2.0016383790506531e-16 0.0 -3.9756933518293955e-16 0.0 -44.955022458883455 3.0584262055975517 74.56799925359375 -22.39206745905992 2.039299528813418e-15 6.0775994655793624e-15 3.1805546814635168e-15 2.758691436281349e-33 9.93923337957349e-17 0.0 -3.9756933518293955e-16 0.0 -0.9794772766431836 -5.985013171561824 0.23521454443004897 0.0 -3.9756933518293955e-16 0.0 31.026345314626663 3.4508825501627465 -70.671366015367 33.234020892818435 1.81910469814772e-15 6.0954548988812035e-15 -6.3611093629270335e-15 0.0 0.0 0.0 0.0 0.0 -0.18321112279245438 -12.5535173373145 -2.2222488752840706 -0.5094918279006679 20.240059445430063 0.02712730892848982 0.0 0.0 -3.975693351829396e-16
0.0 0.0 801.7028809013551 24.846877672052823 1.8187110250299006 3.8282561744397525 0.0 0.0 9.939233379573489e-17 -0.23609515177457338 -16.054217519605068 0.01990407619135969 0.37152630710089485 22.994442654519826 0.4257115288739126 0.0 0.0 -1.987846675914698e-16 0.0 0.0 9.939233379573489e-17 0.014432880242770622 1.0039998418366523 -2.6656736050762855 1.205152217596792 2.9816051146158625e-16 -3.1358509579360696e-18 0.0 0.0 1.987846675914698e-16 -45.56458456890651 3.369575166061932 74.95444598504673 -22.074455310138703 -1.4472299919290525e-15 -9.193647782610443e-15 0.0 0.0 1.0933156717530838e-15 0.0 0.0 1.987846675914698e-16 -1.130159628345371 -6.0531115202290655 0.4956917788599042 0.0 0.0 1.987846675914698e-16 30.748238682661096 2.356720289417445 -69.79945265941032 32.7737041608287 -1.489733293658527e-14 -5.5648605931343055e-15 0.0 0.0 0.0 0.0 0.0 9.939233379573489e-17 -0.1810080091389679 -12.342015583945331 -2.225115354769645 -0.5077546522482558 20.186760146177754 0.08727331229576264 -3.1805546814635168e-15 -1.6896696745274934e-15 -4.689775441678294e-32
0.0 0.0 801.7028809013551 25.058138325120474 1.4423664501971345 3.8772586337861865 -2.586273221513765e-34 -9.93923337957349e-17 -2.981770013872047e-16 -0.23012729992497474 -15.694054248566452 -0.11095995284659473 0.31391534810713356 22.943852052731245 0.5620523545184039 0.0 0.0 5.963540027744094e-16 -2.586273221513765e-34 -9.93923337957349e-17 -2.981770013872047e-16 0.013203686051008669 0.920143790449504 -2.5702010828136355 1.3206072403383518 -4.8547447938167753e-17 9.995844296703689e-17 0.0 0.0 0.0 -45.87189962779749 3.7911542677819843 75.29338401736996 -21.90259981344987 9.063367431060347e-16 -4.683950457904076e-15 0.0 0.0 -7.951386703658792e-16 0.0 0.0 0.0 -1.6289835483230608 -5.703013687564488 0.3388728410852116 0.0 0.0 0.0 30.83328065997123 2.2488105235939053 -69.70067316014898 32.66357911639526 1.1314500415406711e-14 -6.6296951468384085e-15 0.0 0.0 0.0 -2.586273221513765e-34 -9.93923337957349e-17 -2.981770013872047e-16 -0.17355560017896152 -11.869583988752524 -2.25985783160166 -0.5232103668352638 20.2427279346033 0.09127984439311584 -6.896728590703373e-34 -9.93923337957349e-17 -7.951386703658792e-16
0.0 0.0 801.7028809013551 25.0375449425858 1.2811249847842574 3.891498889255566 0.0 0.0 -2.2363275104040355e-16 -0.2281861921378801 -15.639422645104913 -0.10970242621064243 0.3232943766669821 23.628647742378323 0.5150654473170972 0.0 0.0 7.951386703658792e-16 0.0 0.0 -2.2363275104040355e-16 0.011563804953663718 0.8092860283287802 -2.601544870314849 1.4427732630225736 4.218398839443144e-17 -5.969324222661553e-16 0.0 0.0 -1.9878466759146977e-16 -45.2695167265515 4.053197567702171 75.67085700317274 -22.068220343017046 1.2955459589259586e-15 9.9740082958711e-15 -3.1805546814635168e-15 3.1805546814635168e-15 -2.435112177995505e-15 0.0 0.0 -1.9878466759146977e-16 -1.7953787985888727 -5.619074704487584 0.44509752333685954 0.0 0.0 -1.9878466759146977e-16 30.242985430737946 2.07063337760277 -69.59242601728262 32.72243175207884 1.0415157123427213e-14 -9.68726296380527e-15 0.0 0.0 -1.5902773407317584e-15 0.0 0.0 -2.2363275104040355e-16 -0.17092324014017188 -11.733524758226514 -2.2415362706051667 -0.5251805048399851 20.503595437711855 -0.002049401178740941 0.0 0.0 0.0
0.0 0.0 801.7028809013551 25.11005198039215 1.600686119189657 3.809279633997483 0.0 0.0 -9.93923337957349e-17 -0.20605570184445804 -16.134607003811364 -0.08927025929712738 0.292851244676741 24.100832638766786 0.5822964945658109 0.0 0.0 -3.975693351829396e-16 0.0 0.0 -9.93923337957349e-17 0.00844910796674275 0.676134398783303 -2.4761214545285015 1.4643717638183011 3.478447640915476e-16 -4.445369139873239e-18 6.896728590703373e-34 -3.975693351829396e-16 1.987846675914698e-16 -44.228487102771865 3.8198453452258976 75.55405100433825 -22.4521346826163 -7.739904759852443e-16 3.899625157738188e-15 0.0 0.0 -3.1308585145656493e-15 6.896728590703373e-34 -3.975693351829396e-16 1.987846675914698e-16 -2.2198634650870215 -5.99661894875089 0.2921689253640512 6.896728590703373e-34 -3.975693351829396e-16 1.987846675914698e-16 29.882295841259488 1.3379787046980134 -69.12069842225634 33.24029950341872 -1.819438672789048e-15 -6.0953552187774594e-15 0.0 0.0 0.0 0.0 0.0 -9.93923337957349e-17 -0.15374700042964948 -12.046505970917712 -2.128193782966817 -0.5292943215451982 20.776386634857268 -0.04432094700607017 -3.1805546814635168e-15 -1.5902773407317584e-15 3.9756933518293955e-16
0.0 0.0 801.7028809013551 25.320642314472966 1.376889006151256 3.828533086075646 -3.1805546814635168e-15 -9.939233379573489e-17 -3.3544912656060527e-16 -0.17714581619688854 -15.926714835057616 -0.049684617421255135 0.2680076612975753 24.116485848876536 0.480205306546308 0.0 0.0 3.975693351829396e-16 -3.1805546814635168e-15 -9.939233379573489e-17 -3.3544912656060527e-16 0.0070008459127870295 0.6419828577153487 -2.4571733183834503 1.4397373448200244 3.9691358611377656e-16 -5.46872054547213e-17 0.0 0.0 -9.93923337957349e-17 -44.32717177329359 4.203750753976172 75.86896770008707 -22.457726907355138 -5.4422122513481666e-15 1.1079417518221776e-14 0.0 0.0 2.2860236773019026e-15 0.0 0.0 -9.93923337957349e-17 -2.4714298957429706 -5.815597577379127 0.30583427601737984 0.0 0.0 -9.93923337957349e-17 29.59333103260674 1.465651976370191 -69.15231463746223 33.73139498103461 -8.855818210306215e-15 -7.285708537207774e-15 -6.3611093629270335e-15 0.0 0.0 -3.1805546814635168e-15 -9.939233379573489e-17 -3.3544912656060527e-16 -0.1298179000821762 -11.646371199961767 -2.101871041047431 -0.5519323723679037 20.669830743546097 -0.15501463796982282 0.0 0.0 0.0
0.0 0.0 801.7028809013551 25.33710476855468 1.1970116647428843 3.848648969330303 0.0 0.0 2.2363275104040355e-16 -0.17875384333948885 -15.845967575591693 -0.03228150682178988 0.282876792788191 24.336546136067035 0.3646208206437729 0.0 0.0 3.975693351829396e-16 0.0 0.0 2.2363275104040355e-16 0.007143018102588343 0.6454324126289728 -2.499844832506318 1.396976293316086 -4.726916651355778e-17 1.9937572312321627e-16 0.0 0.0 0.0 -44.03461613035998 4.567231009842037 76.21069673966642 -22.804236612981978 -6.812787407710358e-16 -1.2710183710793605e-14 0.0 0.0 -2.7581372628316434e-15 0.0 0.0 0.0 -2.4823283419394446 -5.725246850883745 0.3896038730471304 0.0 0.0 0.0 29.150974331996935 1.8331180665857434 -69.39825762796336 34.3931198236194 1.0272819726272842e-14 -9.83807585389996e-15 0.0 0.0 1.590277340731758e-15 0.0 0.0 2.2363275104040355e-16 -0.12964359296299408 -11.459300351547329 -2.103641069881444 -0.5498109327983255 20.69171420982308 -0.2209825946930776 0.0 0.0 0.0
0.0 0.0 801.7028809013551 25.41554954598298 0.7271564456393653 3.8865555366486912 0.0 0.0 8.696829207126804e-17 -0.16878354380399896 -15.379424431384239 -0.09732296352033333 0.2456004751920639 24.366501945708674 0.45877980140550706 0.0 0.0 3.975693351829396e-16 0.0 0.0 8.696829207126804e-17 0.008633233269298822 0.8002983112293671 -2.5561520747453286 1.2503480564160714 4.698200221837936e-17 -2.4900828416020687e-16 0.0 0.0 4.969616689786745e-17 -45.01044858949714 4.336830510424192 76.08277251380282 -22.1155098290184 2.206467697430698e-15 5.292283681547902e-15 0.0 0.0 -2.33571984419977e-15 0.0 0.0 4.969616689786745e-17 -2.273890695783361 -5.449173507865163 0.5720491620447574 0.0 0.0 4.969616689786745e-17 30.07757857168968 1.8853158964884844 -69.06141303630737 34.22944638181595 -9.359924729224658e-16 -3.039711527828254e-15 0.0 0.0 -1.5902773407317584e-15 0.0 0.0 8.696829207126804e-17 -0.12201884787976167 -11.069381572520788 -2.1435270431803546 -0.5681786419433588 20.585235284670446 -0.13804812548492246 0.0 0.0 0.0
